<svg width="57" height="99" fill="none" xmlns="http://www.w3.org/2000/svg"><g clip-path="url(#a)"><path d="M51.878 77.231V53.418H.118v23.813c0 10.002 6.265 18.506 15.05 21.84a16.334 16.334 0 0 0-8.785 14.492v8.436h39.16v-8.436c0-6.328-3.54-11.77-8.785-14.492 8.854-3.402 15.12-11.906 15.12-21.84Z" fill="#FC0"/><path d="M9.448 18.716a145.499 145.499 0 0 1 12.464 37.012M26.61 54.64c2.452-16.396 13.757-37.692 17.367-41.025" stroke="#F2EAE2" stroke-width="2" stroke-miterlimit="10" stroke-linecap="round" stroke-linejoin="round"/><path d="M17.416 53.076c-2.793-3.47-5.517-7.144-7.969-10.886-1.634-2.449-5.653-9.525-2.452-10.341 1.907-.477 4.631 3.266 6.47 5.443C8.357 29.808 3.454 21.643 3.25 12.594c-.069-3.333.953-7.007 3.882-8.708 3.677-2.11 7.15 1.497 8.853 4.49 5.176 8.981 4.019 15.513 5.176 25.854.273-.816.409-3.334 1.703-3.334 4.154 0 2.52 18.166 1.566 22.044M26.815 32.054c1.43-6.804 5.04-22.452 9.671-22.248 1.975.068 2.043 3.334 1.84 4.218C40.027 8.31 44.522 3.547 50.106 1.506c1.294-.477 2.86-.817 4.087-.069 1.09.68 1.566 2.042 1.43 3.334-.068 1.293-.613 2.45-1.226 3.606-2.247 4.559-6.266 10.478-9.058 14.696 3.61-2.517 5.176-3.061 7.151-2.721 1.566.272 2.52 1.905 2.588 3.47.068 1.565-.613 3.061-1.362 4.422a47.244 47.244 0 0 1-11.919 14.288c1.43.204 3.133-1.02 4.019.068.204.272.272.68.272 1.02 0 1.565-1.158 2.926-2.383 3.947-2.997 2.653-6.403 4.898-10.08 6.463" stroke="#F2EAE2" stroke-width="2" stroke-miterlimit="10" stroke-linecap="round" stroke-linejoin="round"/></g><defs><clipPath id="a"><path fill="#fff" d="M0 0h57v99H0z"/></clipPath></defs></svg>