<svg width="415" height="180" fill="none" xmlns="http://www.w3.org/2000/svg"><path d="M90.61 1c50.007 0 90.609 40.1 90.609 89.488 0 49.389-40.602 89.488-90.61 89.488C40.603 179.976 0 139.877 0 90.488 0 41.1 40.602 1 90.61 1Z" fill="#FE6571"/><path d="M181.61 0c50.007 0 90.609 40.1 90.609 89.488 0 49.389-40.602 89.488-90.609 89.488-50.008 0-90.61-40.099-90.61-89.488C91 40.1 131.602 0 181.61 0Z" fill="#082C4E"/><path d="M263.61 1c50.007 0 90.609 40.1 90.609 89.488 0 49.389-40.602 89.488-90.609 89.488-50.008 0-90.61-40.099-90.61-89.488C173 41.1 213.602 1 263.61 1Z" fill="#FC0"/><path d="M324.5 1C374.447 1 415 41.105 415 90.5S374.447 180 324.5 180 234 139.895 234 90.5 274.553 1 324.5 1Z" fill="#F2EAE2"/></svg>