<svg width="24" height="24" fill="none" xmlns="http://www.w3.org/2000/svg"><path d="M12 2.775c3 0 3.36.011 4.546.065a4.82 4.82 0 0 1 3.382 1.23 4.82 4.82 0 0 1 1.23 3.382c.053 1.189.067 1.548.067 4.548s-.011 3.36-.065 4.546a4.819 4.819 0 0 1-1.23 3.382 4.819 4.819 0 0 1-3.382 1.23c-1.186.053-1.542.065-4.546.065-3.004 0-3.359-.011-4.546-.066a4.82 4.82 0 0 1-3.382-1.229 4.818 4.818 0 0 1-1.23-3.382c-.055-1.187-.069-1.542-.069-4.546 0-3.004.011-3.36.065-4.546a4.82 4.82 0 0 1 1.23-3.382 4.82 4.82 0 0 1 3.384-1.23C8.641 2.788 9 2.775 12 2.775ZM12 .75c-3.055 0-3.438.013-4.639.068a6.73 6.73 0 0 0-4.725 1.82 6.728 6.728 0 0 0-1.82 4.725C.763 8.562.75 8.945.75 12c0 3.055.013 3.438.068 4.639a6.73 6.73 0 0 0 1.82 4.725 6.728 6.728 0 0 0 4.725 1.82c1.2.055 1.584.067 4.638.067 3.055 0 3.439-.012 4.64-.067a6.73 6.73 0 0 0 4.724-1.82 6.729 6.729 0 0 0 1.82-4.725c.055-1.2.068-1.584.068-4.639s-.013-3.438-.067-4.639a6.73 6.73 0 0 0-1.82-4.725A6.728 6.728 0 0 0 16.64.816C15.438.763 15.055.75 12 .75Z" fill="#fff"/><path d="M12 6.226a5.775 5.775 0 1 0 0 11.55 5.775 5.775 0 0 0 0-11.55Zm0 9.525a3.75 3.75 0 1 1 0-7.502 3.75 3.75 0 0 1 0 7.502ZM18.005 7.345a1.35 1.35 0 1 0 0-2.7 1.35 1.35 0 0 0 0 2.7Z" fill="#fff"/></svg>