<svg width="24" height="24" fill="none" xmlns="http://www.w3.org/2000/svg"><path d="M21.75.75H2.25a1.5 1.5 0 0 0-1.5 1.5v19.5a1.5 1.5 0 0 0 1.5 1.5h19.5a1.5 1.5 0 0 0 1.5-1.5V2.25a1.5 1.5 0 0 0-1.5-1.5ZM7.415 19.945H4.03V9.188h3.385v10.758ZM5.723 7.711a1.969 1.969 0 1 1 .012-3.938 1.969 1.969 0 0 1-.013 3.938Zm14.243 12.234H16.65v-5.203c0-1.265 0-2.813-1.762-2.813-1.763 0-1.975 1.337-1.975 2.742v5.345H9.6V9.188h3.102v1.476h.07a3.526 3.526 0 0 1 3.174-1.758c3.385 0 4.019 2.25 4.019 5.133v5.906Z" fill="#fff"/></svg>