<svg width="115" height="24" fill="none" xmlns="http://www.w3.org/2000/svg"><path fill-rule="evenodd" clip-rule="evenodd" d="M8.46 10.185a5.102 5.102 0 0 1-5.093-5.093A5.102 5.102 0 0 1 8.46 0a5.102 5.102 0 0 1 5.093 5.093 5.102 5.102 0 0 1-5.093 5.092Zm0-7.275a2.19 2.19 0 0 0-2.183 2.183c0 1.2.983 2.182 2.183 2.182a2.19 2.19 0 0 0 2.183-2.183A2.185 2.185 0 0 0 8.46 2.91ZM13.042 24l-3.997-7.365c-.398.93-.93 1.807-1.575 2.595a11.176 11.176 0 0 1-6.143 3.795l-.66-2.835a8.203 8.203 0 0 0 4.485-2.783 7.793 7.793 0 0 0 1.793-5.002l2.797-.682 5.926 10.912L13.043 24Zm43.316-3.308c-.42.675-1.02 1.2-1.8 1.583-.78.382-1.56.577-2.348.577-1.02 0-1.95-.187-2.798-.562a6.545 6.545 0 0 1-2.175-1.538 7.238 7.238 0 0 1-1.913-4.958c0-.937.166-1.837.503-2.692a7.34 7.34 0 0 1 1.41-2.265A6.44 6.44 0 0 1 49.412 9.3c.848-.375 1.778-.563 2.798-.563.788 0 1.568.195 2.348.578.78.382 1.38.915 1.8 1.582V2.842H59.5v19.665h-3.143v-1.815Zm-3.975-.637c.592 0 1.14-.113 1.627-.345.488-.233.908-.54 1.253-.923.345-.382.615-.832.81-1.357a4.614 4.614 0 0 0 .285-1.643c0-.577-.098-1.125-.285-1.642a4.192 4.192 0 0 0-.81-1.358 3.966 3.966 0 0 0-1.253-.922 3.747 3.747 0 0 0-1.627-.345c-.593 0-1.133.112-1.613.345a3.99 3.99 0 0 0-1.238.922 4.005 4.005 0 0 0-.795 1.358 4.964 4.964 0 0 0-.27 1.642c0 .578.09 1.125.27 1.643.18.517.45.967.795 1.357.345.383.758.69 1.238.923.48.232 1.013.345 1.613.345ZM34.02 9.082h-3.15v13.433h3.143V15.57c0-1.155.27-2.115.795-2.895.532-.78 1.342-1.17 2.438-1.17.554 0 1.02.105 1.395.315.375.21.675.495.892.848.218.352.375.78.473 1.282.097.503.142 1.035.142 1.613v6.944h3.143v-7.98c0-.922-.06-1.687-.188-2.302a4.624 4.624 0 0 0-.675-1.672c-.382-.563-.907-.998-1.567-1.328-.66-.323-1.478-.488-2.46-.488-1.005 0-1.876.188-2.626.563-.75.375-1.335.93-1.755 1.657V9.082Zm-9.068 0h3.143v13.425h-3.143V9.082Zm37.338 0h3.142v13.425H62.29V9.082Zm15.196 4.898c-.098-.728-.383-1.32-.848-1.77-.472-.45-1.245-.675-2.318-.675-.615 0-1.14.112-1.582.345-.443.232-.818.54-1.125.937a3.908 3.908 0 0 0-.675 1.358 6.01 6.01 0 0 0-.218 1.627c0 .578.075 1.125.218 1.643.142.517.367.967.675 1.357.307.383.697.69 1.177.923.48.232 1.058.345 1.725.345.923 0 1.598-.195 2.033-.578.435-.382.75-.915.967-1.582h3.143a6.782 6.782 0 0 1-.63 1.942 5.11 5.11 0 0 1-1.252 1.583 5.67 5.67 0 0 1-1.898 1.05c-.743.247-1.598.375-2.58.375-1.095 0-2.063-.195-2.895-.593a6.224 6.224 0 0 1-2.1-1.567 6.56 6.56 0 0 1-1.283-2.25 8.233 8.233 0 0 1 0-5.28 6.628 6.628 0 0 1 1.282-2.265 6.239 6.239 0 0 1 2.086-1.568c.825-.39 1.785-.592 2.88-.592s2.032.157 2.805.457c.78.308 1.418.705 1.928 1.193.51.487.892 1.05 1.155 1.672.262.623.42 1.26.472 1.913h-3.142Zm5.91-4.898h3.143v13.425h-3.143V9.082Zm27.617 5.843c.458.172.915.352 1.358.547.442.195.832.435 1.177.72.345.285.623.63.818 1.035.202.405.3.915.3 1.53 0 .69-.143 1.298-.42 1.815-.278.518-.66.945-1.155 1.283-.488.337-1.065.585-1.718.75a8.426 8.426 0 0 1-2.077.247 6.767 6.767 0 0 1-2.078-.315 5.257 5.257 0 0 1-1.74-.937 4.405 4.405 0 0 1-1.208-1.53c-.3-.608-.45-1.298-.45-2.085h3.053c0 .885.247 1.5.735 1.86.488.352 1.11.532 1.86.532.615 0 1.133-.112 1.553-.345.42-.232.63-.63.63-1.207 0-.308-.09-.555-.263-.75-.172-.195-.435-.368-.78-.533-.345-.165-.78-.33-1.297-.502a48.047 48.047 0 0 1-1.845-.66 12.59 12.59 0 0 1-1.283-.563 4.296 4.296 0 0 1-1.02-.705 2.669 2.669 0 0 1-.66-1.005c-.158-.405-.233-.892-.233-1.47 0-.637.135-1.192.405-1.672s.63-.885 1.095-1.223a4.836 4.836 0 0 1 1.598-.75 7.377 7.377 0 0 1 1.943-.247c.712 0 1.38.112 2.002.345.623.232 1.17.547 1.628.952.457.405.825.885 1.095 1.44a4.1 4.1 0 0 1 .405 1.815h-3.053c0-.637-.165-1.14-.502-1.515-.338-.375-.885-.562-1.658-.562-.54 0-.997.127-1.365.375-.375.247-.562.615-.562 1.095 0 .285.075.525.232.705.15.18.383.345.69.487.308.143.69.3 1.155.458.481.163 1.006.355 1.61.576l.025.009ZM28.771 5.093a2.25 2.25 0 1 1-4.5 0 2.25 2.25 0 0 1 4.5 0Zm35.095 2.25a2.25 2.25 0 1 0 0-4.5 2.25 2.25 0 0 0 0 4.5Zm23.356-2.25a2.25 2.25 0 1 1-4.5 0 2.25 2.25 0 0 1 4.5 0Zm11.364 11.1c0 2.617-1.29 3.584-3.09 3.584-1.8 0-3.09-.967-3.09-3.585V9.075h-3.113v7.44c0 4.222 2.662 6.33 6.195 6.33 3.54 0 6.196-2.1 6.196-6.33v-7.44h-3.113v7.117h.015Z" fill="#fff"/></svg>