<svg width="24" height="24" fill="none" xmlns="http://www.w3.org/2000/svg"><path d="M21.75.75H2.25a1.5 1.5 0 0 0-1.5 1.5v19.5a1.5 1.5 0 0 0 1.5 1.5h19.5a1.5 1.5 0 0 0 1.5-1.5V2.25a1.5 1.5 0 0 0-1.5-1.5Zm-2.308 5.331-1.207 1.156a.352.352 0 0 0-.134.34v8.5a.352.352 0 0 0 .134.34l1.179 1.157v.253h-5.925v-.253l1.22-1.187c.12-.12.12-.155.12-.338V9.178l-3.394 8.625h-.458L7.022 9.178v5.775a.8.8 0 0 0 .22.663l1.587 1.925v.254h-4.5v-.254l1.588-1.925a.771.771 0 0 0 .205-.663v-6.68a.585.585 0 0 0-.192-.492l-1.413-1.7v-.254H8.9l3.388 7.425 2.978-7.425h4.177v.254Z" fill="#fff"/></svg>