<svg width="100" height="100" fill="none" xmlns="http://www.w3.org/2000/svg"><path d="M50 98.483c26.778 0 48.486-21.707 48.486-48.485C98.486 23.221 76.778 1.514 50 1.514c-26.778 0-48.485 21.707-48.485 48.484 0 26.778 21.707 48.485 48.485 48.485Z" fill="#F2EAE2"/><path d="M70.407 65.17s-14.777 12.706-33.93 6.184M44.98 42.066l-7.484 16.247 8.46 3.197" stroke="#082C4E" stroke-width="1.5" stroke-miterlimit="10" stroke-linecap="round" stroke-linejoin="round"/><path d="M35.303 49.665c6.584-.809 11.266-6.801 10.457-13.385-.808-6.584-6.8-11.266-13.384-10.458-6.584.809-11.266 6.802-10.458 13.385.809 6.584 6.801 11.266 13.385 10.458ZM65.521 49.385C72.105 48.576 76.787 42.584 75.98 36c-.809-6.584-6.802-11.266-13.385-10.457-6.584.808-11.266 6.8-10.458 13.384.809 6.584 6.801 11.266 13.385 10.458ZM46.824 38.366l5.215-.237" stroke="#082C4E" stroke-width="1.5" stroke-miterlimit="10" stroke-linecap="round" stroke-linejoin="round"/></svg>