<svg width="100" height="100" fill="none" xmlns="http://www.w3.org/2000/svg"><path d="m49.683.558 42.86 24.715v49.43L49.683 99.42 6.823 74.704v-49.43L49.682.557Z" fill="#3098F3"/><path d="M49.683 32.193c9.84 0 17.816 7.967 17.816 17.795 0 9.828-7.977 17.795-17.816 17.795-9.84 0-17.817-7.968-17.817-17.795 0-9.828 7.977-17.795 17.817-17.795Z" fill="#FC0"/><path d="M49.676 72.565c12.938 0 23.425-10.454 23.425-23.35 0-12.897-10.487-23.351-23.425-23.351-12.937 0-23.425 10.454-23.425 23.35 0 12.897 10.488 23.351 23.425 23.351Z" stroke="#082C4E" stroke-width="2" stroke-miterlimit="10" stroke-linecap="round" stroke-linejoin="round"/></svg>