<svg width="486" height="444" fill="none" xmlns="http://www.w3.org/2000/svg"><path d="M454.902 419.758h-20.649l2.709 7.28c-4.438 1.445-14.534 4.758-19.067 6.061-4.221 1.214-5.378 6.116-2.014 8.396 1.407.954 3.292 1.425 5.119 1.418l30.812-.11c4.283-.016 7.11-1.149 7.683-4.777a5.864 5.864 0 0 0-.167-2.495l-4.426-15.773ZM338.583 419.9h-21.896l2.405 7.12c-4.438 1.446-14.824 4.887-19.356 6.19-4.221 1.213-5.378 6.114-2.014 8.395 1.407.954 3.292 1.315 5.119 1.309h33.288l.144-.002c5.021-.061 8.462-5.108 6.816-9.856l-4.506-13.156Z" fill="#072C4E"/><path d="M408.626 217.256s14.716 41.946 27.972 85.016c5.939 19.295 26.428 92.41 32.691 110.369 1.124 3.222-1.266 6.957-4.676 6.957H424.05c-4.294 0-8.862-3.358-10.156-7.457-28.535-90.441-45.036-176.667-45.036-176.667 0-.1-33.143 56.545-39.916 68.121a5.95 5.95 0 0 0-.659 4.368c2.997 12.809 17.757 75.471 26.645 105.51.873 2.952-1.26 6.036-4.337 6.06h-38.434c-3.04 0-6.235-2.389-7.109-5.304-10.38-34.579-17.768-68.424-24.038-99.586-2.738-13.6-.099-20.719 10.784-36.661 12.408-18.177 42.466-66.685 45.836-70.058" stroke="#082C4E" stroke-width="1.171" stroke-linecap="round" stroke-linejoin="round"/><path d="M115.396 420.105H94.748l-.375 5.858c-4.439 1.445-16.12 5.233-20.653 6.536-4.22 1.213-5.377 6.115-2.013 8.396 1.406.953 3.427 1.314 5.253 1.308h29.44c4.831-.018 7.808-1.458 7.791-6.294l1.205-15.804ZM221.394 419.544h21.896l5.804 6.418c4.438 1.446 16.12 5.234 20.652 6.537 4.221 1.213 5.377 6.115 2.013 8.396-1.406.953-3.292 1.313-5.119 1.307h-33.288c-4.83-.018-7.393-2.056-8.321-5.928l-3.637-16.73Z" fill="#072C4E"/><path d="M204.283 248.913c22.241 41.58 55.328 120.772 64.554 162.938.773 3.535-1.884 7.641-5.498 7.695H212.8c-2.862.043-5.967-3.503-6.391-6.337-7.076-47.222-55.038-161.991-62.003-185.382 0 0-7.822 146.21-8.343 181.806-.075 5.155-3.514 10.533-8.665 10.533H85.309c-5.714 0-10.113-5.046-9.336-10.713 9.852-71.837 16.687-151.204 25.971-194.783M175.973 211.634c3.595 6.41 8.847 13.442 12.133 17.543M63.747 441.182c118.428 2.531 217.825 1.445 217.825 1.445M301.456 441.829c16.723.357 30.493.497 44.514.674 85.271 1.078 121.803.113 121.803.113" stroke="#082C4E" stroke-width="1.171" stroke-linecap="round" stroke-linejoin="round"/><path d="M236.199 83.768s22.6 32.434 53.16 48.391c29.887 15.6 68.327 15.931 70.005 15.937" stroke="#092C4E" stroke-width="28.701" stroke-linejoin="round"/><path d="M236.199 83.768s22.6 32.434 53.16 48.391c29.887 15.6 68.327 15.931 70.005 15.937" stroke="#FC0" stroke-width="26.358"/><path d="m245.421 72.292-24.43 19.168 3.667 2.67 24.261-15.928-3.498-5.91Z" fill="#FC0"/><path d="M232.94 84.57c-3.673-.796-7.564-8.28-8.65-11.57-.837-2.533-.253-4.469 1.989-5.474 3.229-1.448 7.518 2.332 8.169 3.136" stroke="#082C4E" stroke-width="1.171" stroke-linecap="round" stroke-linejoin="round"/><path d="M232.447 74.797c.778.874 2.658 4.063 3.141 5.128M223.345 71.55c-3.994-.832-4.678 2.727-4.421 4.637.655 4.875 4.991 11.092 7.585 13.37.793.694 2.008.889 2.996.524.988-.364 1.697-1.515 1.354-2.511" stroke="#082C4E" stroke-width="1.171" stroke-linecap="round" stroke-linejoin="round"/><path d="M218.563 75.379c-3.207-.084-3.997 3.346-3.471 6.029.904 4.614 4.589 8.359 6.759 9.9 1.052.746 3.948 1.458 4.887-1.148M250.196 75.914s-2.852-2.286-9.672-12.058c-3.572-5.117-5.536-8.118-7.408-9.924-2.327-2.244-4.426-3.018-5.591-1.74-1.313 1.439.121 6.111 1.78 9.446 2.929 5.886 10.28 17.014 12.301 19.58" stroke="#082C4E" stroke-width="1.171" stroke-linecap="round" stroke-linejoin="round"/><path d="M250.161 85.043c-3.08-2.466-13.439-5.152-15.853-5.076-3.025.095-2.903 3.334-.664 5.226 2.8 2.368 7.695 3.727 8.105 3.746 1.106.053-5.106 1.672-5.736 5.803" stroke="#082C4E" stroke-width="1.171" stroke-linecap="round" stroke-linejoin="round"/><path d="M452.074 272.674s25.331-36.55 10.111-73.255c-14.889-35.929-57.091-44.221-58.89-44.565" stroke="#092C4E" stroke-width="28.701" stroke-linejoin="round"/><path d="M452.074 272.674s25.331-36.55 10.111-73.255c-14.889-35.929-57.091-44.221-58.89-44.565" stroke="#FC0" stroke-width="26.358"/><path d="m401.15 218.592-57.188-8.942a5.84 5.84 0 0 1-4.864-6.672l9.272-59.42c1.466-9.393 10.26-15.818 19.643-14.351l34.739 5.432c9.384 1.467 15.802 10.272 14.337 19.665l-9.274 59.419a5.834 5.834 0 0 1-6.665 4.869Z" fill="#2F97F3"/><path d="m426.459 377.607-89.595-40.079 52.738-118.045 89.595 40.078-52.738 118.046Z" fill="#fff"/><path d="M362.742 321.185a21311.683 21311.683 0 0 1 44.779-57.685c1.005-1.29 2.117-2.654 3.691-3.097 1.616-.456 3.318.174 4.878.793l16.241 6.444M364.055 323.899c3.134.913 13.169 5.303 13.169 5.303s19.28-23.811 19.872-23.924c.321-.06 12.954 5.085 12.803 5.586-3.04 10.1-5.109 20.513-7.251 27.475-.125.409 16.236 7.694 16.516 7.573.504-.217.927-1.888 1.046-2.424 2.068-9.327 11.169-53.633 11.466-60.71" stroke="#082C4E" stroke-width="1.171" stroke-linecap="round" stroke-linejoin="round"/><path d="M404.029 293.674s7.362 3.377 9.357 4.153c.434.169 4.13-22.701 4.13-22.701l-13.487 18.548ZM438.677 263.485c-3.18 4.994-12.412 14.199-9.661 16.367 3.278 2.583 9.852-5.136 12.743-9.037M436.361 288.449c-.077 2.651 3.34 2.086 5.232 1.002 4.986-2.857 8.403-8.399 10.841-12.379" stroke="#082C4E" stroke-width="1.171" stroke-linecap="round" stroke-linejoin="round"/><path d="M442.821 268.687c-1.845 3.415-2.276 5.322-6.799 11.194-2.436 3.161-6 7.39-3.777 8.659 4.486 2.56 12.006-8.151 15.417-14.297M442.028 291.173c.418.694 1.759 1.668 3.926.792 3.588-1.449 7.283-4.142 9.211-7.499" stroke="#082C4E" stroke-width="1.171" stroke-linecap="round" stroke-linejoin="round"/><path d="M438.631 263.343s7.961-9.92 10.035-22.732M476.737 256.847s-2.736 10.857-7.485 18.428M338.953 162.691s3.985.952 17.153-.464M346.505 131.54s4.299.547 16.162.054M416.338 175.925s-4.191-2.683-13.705-3.863M421.216 143.599s-8.491-3.641-16.683-3.932" stroke="#092C4E" stroke-width="1.171"/><path d="M383.748 112.427s-5.451 3.677-11.585.656M376.205 103.656l-3.158 5.083 2.72 1.454" stroke="#082C4E" stroke-width="1.171" stroke-linecap="round" stroke-linejoin="round"/><path d="M375.936 102.883a4.05 4.05 0 0 1-4.311 3.772 4.05 4.05 0 0 1-3.768-4.315 4.05 4.05 0 1 1 8.079.543ZM386.024 104.018a4.05 4.05 0 1 1-8.078-.542 4.05 4.05 0 0 1 4.309-3.772 4.051 4.051 0 0 1 3.769 4.314Z" stroke="#082C4E" stroke-width="1.171" stroke-linecap="round" stroke-linejoin="round"/><path d="m376.225 103.36 1.721.116-1.721-.116Z" fill="#2F97F3"/><path d="m376.225 103.36 1.721.116" stroke="#082C4E" stroke-width="1.171" stroke-linecap="round" stroke-linejoin="round"/><path d="M390.474 89.272c-2.122-2.795-5.386-4.697-9.16-4.95-6.926-.465-12.917 4.778-13.381 11.71l16.338 1.097c1.528 3.125 4.575 4.219 7.155 4.728 2.659.524 3.86 1.891 4.163 3.545.077.419.13.865.181 1.327a4.599 4.599 0 0 1 1.898-.274 4.622 4.622 0 0 1 2.1 8.556 10.173 10.173 0 0 0 5.286 1.859 18.845 18.845 0 0 0 2.13-7.546c.679-10.127-6.738-18.922-16.71-20.052Z" fill="#FD6470"/><path d="M404.278 117.94c-3.53 5.144-9.449 8.518-16.154 8.518-10.815 0-19.583-8.777-19.583-19.604 0-.514.019-1.023.058-1.529M141.664 97.147l5.144 3.5-2.131 2.771M147.069 105.676s-4.617 3.673-9.683 2.169c0 0 .813 6.611 7.211 5.384" stroke="#082C4E" stroke-width="1.171" stroke-linecap="round" stroke-linejoin="round"/><path d="M145.192 93.415a19.535 19.535 0 0 1 4.23 12.206c-.02 10.827-8.804 19.588-19.619 19.568-5.809-.011-11.021-2.551-14.6-6.578" stroke="#082C4E" stroke-width="1.171" stroke-linecap="round" stroke-linejoin="round"/><path d="M144.789 91.989a20.194 20.194 0 0 0-16.847-6.917c-.012 0-1.604.156-2.67.41-1.537.366-2.862.803-3.849 1.237a20.496 20.496 0 0 0-5.789 3.828 9.066 9.066 0 0 0-1.136-1.018 9.04 9.04 0 0 0-12.658 1.862c-2.982 4.013-2.15 9.686 1.859 12.671a8.988 8.988 0 0 0 5.648 1.779c.06 1.504.292 3.02.708 4.522 1.064 4.389 3.889 7.614 3.889 7.614 5.422-2.154 7.902-4.188 9.026-6.154a4.623 4.623 0 0 1-4.769-4.94 4.621 4.621 0 0 1 4.926-4.296c.429.03.837.121 1.224.258.431-1.053 1.219-2.11 2.647-3.179 4.321-3.231 5.596-6.378 5.445-8.918a20.1 20.1 0 0 0 12.346 1.24ZM.434 396.973c0 9.891 6.196 18.329 14.912 21.65-5.159 2.723-8.677 8.142-8.677 14.386v8.37h38.757v-8.37c0-6.244-3.519-11.663-8.678-14.386 8.717-3.321 14.912-11.759 14.912-21.65v-23.62H.434v23.62Z" fill="#2F97F3"/><path d="M9.667 338.985a146.332 146.332 0 0 1 12.345 36.734M26.677 374.581c2.415-16.249 13.593-37.391 17.187-40.708" stroke="#082C4E" stroke-width="1.171" stroke-linecap="round" stroke-linejoin="round"/><path d="M17.573 373.028a151.557 151.557 0 0 1-7.906-10.769C8.038 359.821 4.04 352.821 7.235 352c1.88-.483 4.613 3.238 6.386 5.42-5.062-7.395-9.925-15.527-10.123-24.49-.073-3.335.954-6.982 3.837-8.655 3.615-2.098 7.097 1.501 8.782 4.424 5.14 8.92 3.988 15.406 5.15 25.634.257-.822.411-3.312 1.674-3.319 4.083-.023 2.502 18.029 1.545 21.88M26.846 352.203c1.382-6.748 4.979-22.292 9.54-22.078 1.974.093 2.023 3.315 1.852 4.197 1.685-5.65 6.14-10.402 11.667-12.442 1.311-.484 2.857-.8 4.044-.064 1.073.666 1.532 2.041 1.442 3.3-.09 1.259-.637 2.434-1.192 3.568-2.21 4.508-6.212 10.394-8.986 14.579 3.595-2.475 5.154-3.029 7.048-2.719 1.522.25 2.524 1.868 2.571 3.411.048 1.543-.634 3.008-1.367 4.367a46.46 46.46 0 0 1-11.793 14.147c1.383.204 3.133-1.018 3.99.087.218.28.29.649.293 1.004.011 1.577-1.166 2.887-2.335 3.942a36.215 36.215 0 0 1-9.99 6.397" stroke="#082C4E" stroke-width="1.171" stroke-linecap="round" stroke-linejoin="round"/><path d="M429.103 57.5h43.255v59.238h-43.255V57.5Z" fill="#FD6470"/><path d="M434.963 63.736h31.506v46.376h-31.506V63.736Z" stroke="#082C4E" stroke-width="1.171" stroke-linecap="round" stroke-linejoin="round"/><path d="M455.605 81.992c0 4.41-3.572 7.984-7.977 7.984s-7.976-3.574-7.976-7.984c0-4.409 3.571-7.984 7.976-7.984 4.405 0 7.977 3.575 7.977 7.984ZM451.111 99.647a6.07 6.07 0 0 1 6.066-6.072 6.07 6.07 0 0 1 6.067 6.072M209.337 242.447c32.375-15.643 58.377-33.762 49.744-65.939-13.234-49.328-94.565-40.893-94.565-40.893" stroke="#082C4E" stroke-width="1.171" stroke-linecap="round" stroke-linejoin="round"/><path d="M171.369 166.09s45.495-6.017 56.956 11.695c7.939 12.27 3.415 24.812-14.38 35.086-7.702 4.448-20.111 8.174-27.862 12.736M200.884 241.351c-1.706 3.015-3.683 7.711-3.96 11.555-.037.529.037 1.368.396 1.757.626.68 1.763.246 2.493-.32" stroke="#082C4E" stroke-width="1.171" stroke-linecap="round" stroke-linejoin="round"/><path d="M190.921 226.711c-2.198 2.16-4.409 4.333-6.22 6.829-1.811 2.494-3.22 5.351-3.616 8.409-.081.623-.064 1.373.456 1.725.275.186.633.207.961.153 1.2-.2 2.046-1.247 2.792-2.208a108.904 108.904 0 0 1 6.846-7.988c-2.387 3.728-4.805 7.517-6.072 11.759-.164.548-.31 1.119-.237 1.687.073.568.41 1.136.95 1.323.503.175 1.057-.007 1.537-.238 2.179-1.046 3.732-3.052 5.012-5.105 1.278-2.052 2.779-4.686 3.706-5.951-2.242 3.234-5.308 8.321-6.094 13.044-.252 1.51.051 2.784.87 3.262 1.012.589 2.198-.649 2.543-1.056 2.589-3.037 4.612-7.913 6.444-10.865" stroke="#082C4E" stroke-width="1.171" stroke-linecap="round" stroke-linejoin="round"/><path d="M96.094 42.44S30.37 61.003 37.75 109.813c7.24 47.852 73.011 47.103 75.573 47.056" stroke="#092C4E" stroke-width="28.701" stroke-linejoin="round"/><path d="M96.094 42.44S30.37 61.003 37.75 109.813c7.24 47.852 73.011 47.103 75.573 47.056" stroke="#FC0" stroke-width="26.358"/><path d="m192.46 16.68-1.517-4.83a3.5 3.5 0 0 0-2.841-2.417L144.343 3.14a7.2 7.2 0 0 0-4.146.639l-25.651 13.94c-1.586-4.009-6.072-6.065-10.156-4.594l-6.778 2.442a8.023 8.023 0 0 0-4.829 10.263l12.484 34.73a8.012 8.012 0 0 0 10.255 4.83l6.778-2.441c3.364-1.212 5.418-4.442 5.296-7.836l27.75-2.823a6.973 6.973 0 0 0 3.96-1.838l32.206-30.163a3.505 3.505 0 0 0 .948-3.61Z" fill="#fff"/><path d="M191.79 14.56 157.765 25.27M146.731 28.744a5.792 5.792 0 0 1 3.783-7.26 5.783 5.783 0 0 1 7.253 3.786 5.785 5.785 0 1 1-11.036 3.474Z" stroke="#082C4E" stroke-width="1.171" stroke-linecap="round" stroke-linejoin="round"/><path d="m90.307 29.629 7.612 27.124 3.903-.125-8.49-29.011-3.025 2.012Z" fill="#FC0"/><path d="M89.277 41.093c3.988-2.058 9.992-3.853 14.523-6.472 4.373-2.529 2.907-4.86-1.114-4.279-3.006.436-10.35 2.21-15.794 4.679M91.495 47.175c1.319-.85 19.406-6.483 17.429-9.644-1.972-3.152-17.06 3.013-19.559 3.643M93.973 52.342c12.339-5.18 17.706-6.97 16.556-9.164-1.132-2.159-12.056 1.845-18.867 3.99" stroke="#082C4E" stroke-width="1.171" stroke-linecap="round" stroke-linejoin="round"/><path d="M177.725 200.487c-.755-9.29-8.747-16.249-17.98-15.791 6.329-3.033 10.405-9.789 9.691-17.186l-2.205-22.845c-.913-9.463-9.316-16.394-18.77-15.479l-32.33 3.127c-9.453.914-16.376 9.326-15.462 18.788l2.204 22.845c.666 6.905 5.323 12.457 11.464 14.601-8.259 1.829-14.111 9.521-13.406 18.197.77 9.476 9.068 16.531 18.534 15.76l42.516-3.463c9.466-.772 16.515-9.079 15.744-18.554Z" fill="#FD6470"/></svg>